{
    "asset" : {
        "generator" : "Khronos glTF Blender I/O v1.8.19",
        "version" : "2.0"
    },
    "extensionsUsed" : [
        "KHR_materials_transmission"
    ],
    "scene" : 0,
    "scenes" : [
        {
            "name" : "Scene",
            "nodes" : [
                0,
                1,
                2,
                3,
                4
            ]
        }
    ],
    "nodes" : [
        {
            "mesh" : 0,
            "name" : "Plane.001",
            "scale" : [
                0.7864348292350769,
                0.7864348292350769,
                0.7864348292350769
            ],
            "translation" : [
                -0.004809838254004717,
                0.11777236312627792,
                2.3785338401794434
            ]
        },
        {
            "mesh" : 1,
            "name" : "Cube",
            "scale" : [
                0.06119764596223831,
                0.06119764596223831,
                0.06119764596223831
            ]
        },
        {
            "mesh" : 2,
            "name" : "silver"
        },
        {
            "mesh" : 3,
            "name" : "Cube.001",
            "scale" : [
                0.06119764596223831,
                0.06119764596223831,
                0.06119764596223831
            ]
        },
        {
            "mesh" : 4,
            "name" : "Cube.002",
            "scale" : [
                0.06119764596223831,
                0.06119764596223831,
                0.06119764596223831
            ]
        }
    ],
    "materials" : [
        {
            "alphaMode" : "BLEND",
            "doubleSided" : true,
            "extensions" : {
                "KHR_materials_transmission" : {
                    "transmissionFactor" : 1
                }
            },
            "name" : "GLASS",
            "pbrMetallicRoughness" : {
                "baseColorFactor" : [
                    0.6792930960655212,
                    0.7451363205909729,
                    0.8000000715255737,
                    0.055821895599365234
                ],
                "metallicFactor" : 0,
                "roughnessFactor" : 0.03647799789905548
            }
        },
        {
            "doubleSided" : true,
            "name" : "depan",
            "pbrMetallicRoughness" : {
                "baseColorTexture" : {
                    "index" : 0
                },
                "metallicFactor" : 0.15488214790821075,
                "roughnessFactor" : 0.5
            }
        },
        {
            "doubleSided" : true,
            "name" : "silver",
            "pbrMetallicRoughness" : {
                "baseColorFactor" : [
                    0.800000011920929,
                    0.800000011920929,
                    0.800000011920929,
                    1
                ],
                "metallicFactor" : 0.8409091234207153,
                "roughnessFactor" : 0.04090908169746399
            }
        },
        {
            "doubleSided" : true,
            "name" : "sisi",
            "pbrMetallicRoughness" : {
                "baseColorTexture" : {
                    "index" : 1
                },
                "metallicFactor" : 0.2863636314868927,
                "roughnessFactor" : 0.30454546213150024
            }
        }
    ],
    "meshes" : [
        {
            "name" : "Plane.001",
            "primitives" : [
                {
                    "attributes" : {
                        "POSITION" : 0,
                        "NORMAL" : 1,
                        "TEXCOORD_0" : 2
                    },
                    "indices" : 3,
                    "material" : 0
                }
            ]
        },
        {
            "name" : "Mesh",
            "primitives" : [
                {
                    "attributes" : {
                        "POSITION" : 4,
                        "NORMAL" : 5,
                        "TEXCOORD_0" : 6
                    },
                    "indices" : 7,
                    "material" : 1
                }
            ]
        },
        {
            "name" : "Cube.001",
            "primitives" : [
                {
                    "attributes" : {
                        "POSITION" : 8,
                        "NORMAL" : 9,
                        "TEXCOORD_0" : 10
                    },
                    "indices" : 11,
                    "material" : 2
                }
            ]
        },
        {
            "name" : "Cube.002",
            "primitives" : [
                {
                    "attributes" : {
                        "POSITION" : 12,
                        "NORMAL" : 13,
                        "TEXCOORD_0" : 14
                    },
                    "indices" : 15,
                    "material" : 3
                }
            ]
        },
        {
            "name" : "Cube.003",
            "primitives" : [
                {
                    "attributes" : {
                        "POSITION" : 16,
                        "NORMAL" : 17,
                        "TEXCOORD_0" : 18
                    },
                    "indices" : 19,
                    "material" : 2
                }
            ]
        }
    ],
    "textures" : [
        {
            "sampler" : 0,
            "source" : 0
        },
        {
            "sampler" : 0,
            "source" : 1
        }
    ],
    "images" : [
        {
            "bufferView" : 8,
            "mimeType" : "image/png",
            "name" : "depan"
        },
        {
            "bufferView" : 17,
            "mimeType" : "image/png",
            "name" : "SISI"
        }
    ],
    "accessors" : [
        {
            "bufferView" : 0,
            "componentType" : 5126,
            "count" : 410,
            "max" : [
                1.6542168855667114,
                0.7973010540008545,
                -0.05489209294319153
            ],
            "min" : [
                -1.6542168855667114,
                -0.23428961634635925,
                -0.26767244935035706
            ],
            "type" : "VEC3"
        },
        {
            "bufferView" : 1,
            "componentType" : 5126,
            "count" : 410,
            "type" : "VEC3"
        },
        {
            "bufferView" : 2,
            "componentType" : 5126,
            "count" : 410,
            "type" : "VEC2"
        },
        {
            "bufferView" : 3,
            "componentType" : 5123,
            "count" : 1788,
            "type" : "SCALAR"
        },
        {
            "bufferView" : 4,
            "componentType" : 5126,
            "count" : 9142,
            "max" : [
                22.961971282958984,
                12.64091682434082,
                39.81153869628906
            ],
            "min" : [
                -22.961971282958984,
                -1.5381256341934204,
                34.704811096191406
            ],
            "type" : "VEC3"
        },
        {
            "bufferView" : 5,
            "componentType" : 5126,
            "count" : 9142,
            "type" : "VEC3"
        },
        {
            "bufferView" : 6,
            "componentType" : 5126,
            "count" : 9142,
            "type" : "VEC2"
        },
        {
            "bufferView" : 7,
            "componentType" : 5123,
            "count" : 42168,
            "type" : "SCALAR"
        },
        {
            "bufferView" : 9,
            "componentType" : 5126,
            "count" : 248,
            "max" : [
                1.372033953666687,
                0.6086729764938354,
                2.2256710529327393
            ],
            "min" : [
                -1.372033953666687,
                0.5832332372665405,
                2.171443223953247
            ],
            "type" : "VEC3"
        },
        {
            "bufferView" : 10,
            "componentType" : 5126,
            "count" : 248,
            "type" : "VEC3"
        },
        {
            "bufferView" : 11,
            "componentType" : 5126,
            "count" : 248,
            "type" : "VEC2"
        },
        {
            "bufferView" : 12,
            "componentType" : 5123,
            "count" : 744,
            "type" : "SCALAR"
        },
        {
            "bufferView" : 13,
            "componentType" : 5126,
            "count" : 424,
            "max" : [
                28.995262145996094,
                10.639001846313477,
                34.974937438964844
            ],
            "min" : [
                -28.995262145996094,
                7.044715404510498,
                -16.839628219604492
            ],
            "type" : "VEC3"
        },
        {
            "bufferView" : 14,
            "componentType" : 5126,
            "count" : 424,
            "type" : "VEC3"
        },
        {
            "bufferView" : 15,
            "componentType" : 5126,
            "count" : 424,
            "type" : "VEC2"
        },
        {
            "bufferView" : 16,
            "componentType" : 5123,
            "count" : 1956,
            "type" : "SCALAR"
        },
        {
            "bufferView" : 18,
            "componentType" : 5126,
            "count" : 286,
            "max" : [
                28.95425033569336,
                9.290289878845215,
                -6.184797286987305
            ],
            "min" : [
                -28.95425033569336,
                -0.7603205442428589,
                -15.424570083618164
            ],
            "type" : "VEC3"
        },
        {
            "bufferView" : 19,
            "componentType" : 5126,
            "count" : 286,
            "type" : "VEC3"
        },
        {
            "bufferView" : 20,
            "componentType" : 5126,
            "count" : 286,
            "type" : "VEC2"
        },
        {
            "bufferView" : 21,
            "componentType" : 5123,
            "count" : 1380,
            "type" : "SCALAR"
        }
    ],
    "bufferViews" : [
        {
            "buffer" : 0,
            "byteLength" : 4920,
            "byteOffset" : 0
        },
        {
            "buffer" : 0,
            "byteLength" : 4920,
            "byteOffset" : 4920
        },
        {
            "buffer" : 0,
            "byteLength" : 3280,
            "byteOffset" : 9840
        },
        {
            "buffer" : 0,
            "byteLength" : 3576,
            "byteOffset" : 13120
        },
        {
            "buffer" : 0,
            "byteLength" : 109704,
            "byteOffset" : 16696
        },
        {
            "buffer" : 0,
            "byteLength" : 109704,
            "byteOffset" : 126400
        },
        {
            "buffer" : 0,
            "byteLength" : 73136,
            "byteOffset" : 236104
        },
        {
            "buffer" : 0,
            "byteLength" : 84336,
            "byteOffset" : 309240
        },
        {
            "buffer" : 0,
            "byteLength" : 84909,
            "byteOffset" : 393576
        },
        {
            "buffer" : 0,
            "byteLength" : 2976,
            "byteOffset" : 478488
        },
        {
            "buffer" : 0,
            "byteLength" : 2976,
            "byteOffset" : 481464
        },
        {
            "buffer" : 0,
            "byteLength" : 1984,
            "byteOffset" : 484440
        },
        {
            "buffer" : 0,
            "byteLength" : 1488,
            "byteOffset" : 486424
        },
        {
            "buffer" : 0,
            "byteLength" : 5088,
            "byteOffset" : 487912
        },
        {
            "buffer" : 0,
            "byteLength" : 5088,
            "byteOffset" : 493000
        },
        {
            "buffer" : 0,
            "byteLength" : 3392,
            "byteOffset" : 498088
        },
        {
            "buffer" : 0,
            "byteLength" : 3912,
            "byteOffset" : 501480
        },
        {
            "buffer" : 0,
            "byteLength" : 56927,
            "byteOffset" : 505392
        },
        {
            "buffer" : 0,
            "byteLength" : 3432,
            "byteOffset" : 562320
        },
        {
            "buffer" : 0,
            "byteLength" : 3432,
            "byteOffset" : 565752
        },
        {
            "buffer" : 0,
            "byteLength" : 2288,
            "byteOffset" : 569184
        },
        {
            "buffer" : 0,
            "byteLength" : 2760,
            "byteOffset" : 571472
        }
    ],
    "samplers" : [
        {
            "magFilter" : 9729,
            "minFilter" : 9987
        }
    ],
    "buffers" : [
        {
            "byteLength" : 574232,
            "uri" : "data:application/octet-stream;base64,"
        }
    ]
}
